PathFileType	4	(X/Y/Z)	C:/Users/beibeiliu/ov580/test_trc/User1\sequence.2_training_dense_left.trc
DataRate	CameraRate	NumFrames	NumMarkers	Units	OrigDataRate	OrigDataStartFrame	OrigNumFrames
120	120	18	19	mm	120	1	244
Frame#	Time	ThumbCMC			ThumbMCP			ThumbIP			ThumbTip			IndexMCP			IndexPIP			IndexTip			MiddleMCP			MiddlePIP			MiddleTip			RingMCP			RingPIP			RingTip			PinkyMCP			PinkyPIP			PinkyTip			BackHand1			BackHand2			BackHand3	
		X0	Y0	Z0	X1	Y1	Z1	X2	Y2	Z2	X3	Y3	Z3	X4	Y4	Z4	X5	Y5	Z5	X6	Y6	Z6	X7	Y7	Z7	X8	Y8	Z8	X9	Y9	Z9	X10	Y10	Z10	X11	Y11	Z11	X12	Y12	Z12	X13	Y13	Z13	X14	Y14	Z14	X15	Y15	Z15	X16	Y16	Z16	X17	Y17	Z17	X18	Y18	Z18	
0	0	-179.288	64.1378	6.11546	-157.484	48.1932	-2.70507	-133.156	41.1089	-14.6224	-112.447	32.823	-23.0772	-182.173	60.3012	-81.8764	-174.634	56.635	-105.465	-169.339	55.8203	-135.786	-207.546	66.4934	-95.3741	-205.429	64.0864	-123.209	-205.779	60.181	-153.261	-232.535	63.1813	-93.9125	-233.757	61.3521	-117.089	-236.227	55.1926	-142.532	-267.018	53.4132	-74.6314	-273.916	48.6712	-89.2661	-279.902	47.6021	-115.169	-236.518	80.0351	-41.4591	-242.991	90.596	-4.60399	-205.8	83.6257	-19.9377	
1	0.00833333	-181.998	63.8589	3.47627	-157.832	49.8435	-3.98888	-138.852	40.9657	-18.0006	-114.789	33.2949	-23.6404	-184.89	61.8589	-83.5384	-178.084	59.4226	-110.303	-174.294	57.1329	-137.782	-209.11	67.8047	-97.7101	-207.4	65.7223	-120.653	-208.847	61.9642	-153.379	-239.6	65.2097	-92.2018	-235.615	61.3831	-117.199	-238.412	56.3954	-147.15	-265.866	55.3252	-71.0216	-278.529	48.8693	-93.2012	-284.699	50.2931	-112.426	-241.467	80.8222	-37.6608	-243.095	91.9794	-6.82113	-206.664	83.1306	-21.2833	
2	0.0166667	-183.404	64.3878	5.10418	-161.362	50.6497	-2.87912	-134.802	42.3378	-19.1143	-119.328	35.3121	-22.3463	-180.682	61.814	-86.0915	-180.26	60.1503	-108.377	-172.987	58.2931	-133.106	-213.259	69.7481	-94.6123	-209.357	66.4778	-121.955	-207.871	62.734	-151.443	-236.152	65.6947	-89.715	-237.843	61.2546	-121.347	-241.552	56.745	-145.826	-268.959	56.3907	-71.8431	-279.084	49.2374	-90.3879	-284.528	48.0292	-112.221	-242.989	82.2826	-38.0564	-243.499	90.8148	-6.32054	-209.602	84.2064	-18.6623	
3	0.025	-179.158	64.7328	1.68415	-160.375	50.8262	-5.61688	-137.089	43.4298	-18.1337	-119.031	36.9769	-20.2192	-184.043	62.2275	-85.7995	-176.074	60.7169	-110.429	-179.324	58.9027	-132.96	-211.479	69.4379	-92.6512	-209.923	66.6193	-123.639	-211.033	63.0579	-152.003	-236.264	65.6389	-91.847	-239.453	61.8878	-119.491	-240.153	57.1949	-140.352	-264.577	56.1313	-70.9211	-275.26	50.4266	-90.9713	-285.388	50.2242	-111.515	-241.23	80.7446	-39.9718	-247.101	91.5952	-7.47701	-207.765	84.2453	-21.0358	
4	0.0333333	-183.738	65.096	4.90079	-157.643	51.4762	-5.77644	-134.733	44.8024	-14.7191	-115.144	38.337	-19.1259	-181.412	62.9883	-81.3614	-178.252	61.3121	-105.198	-174.434	59.83	-130.87	-208.108	70.3831	-97.3994	-206.57	66.0659	-124.947	-208.117	63.7265	-149.566	-240.572	65.5752	-90.3359	-237.69	62.4315	-120.307	-241.86	56.562	-144.333	-269.977	55.1083	-70.9591	-273.315	50.0154	-89.1617	-285.328	49.9656	-110.905	-241.244	82.7856	-39.059	-240.589	91.7417	-7.51596	-208.034	83.598	-20.4707	
5	0.0416667	-182.042	64.3544	1.9397	-158.852	51.6879	-4.71161	-134.944	44.2763	-18.5466	-114.1	38.2509	-19.3597	-180.721	62.1616	-79.1281	-179.98	60.5719	-108.978	-174.777	58.7792	-130.382	-212.232	69.194	-95.8465	-207.357	66.4564	-121.401	-210.993	63.0966	-150.217	-240.96	65.1999	-89.6438	-240.759	61.7959	-119.174	-243.271	56.593	-140.424	-267.678	55.9637	-70.6886	-273.102	50.2074	-86.4326	-285.399	47.5603	-108.862	-238.222	82.2228	-34.432	-243.152	91.1622	-5.03805	-204.832	83.0215	-17.8986	
6	0.05	-179.565	65.755	2.99334	-156.042	52.5131	-4.02435	-137.913	43.4143	-14.821	-116.905	38.0325	-19.9619	-183.549	62.6146	-84.776	-177.059	59.7394	-104.18	-176.589	58.496	-131.071	-213.166	69.6808	-96.2464	-207.562	66.7545	-118.943	-208.934	64.3027	-151.716	-236.24	65.2073	-87.2287	-239.5	61.6031	-115.953	-239.404	57.0791	-143.894	-269.782	55.3747	-69.7356	-277.479	48.6421	-90.1458	-285.838	48.0535	-110.14	-237.527	80.4719	-33.5871	-244.867	92.1575	-3.55462	-208.019	85.8838	-17.2808	
7	0.0583333	-180.78	67.0799	7.38721	-157.688	52.5338	-1.25533	-132.547	45.0746	-16.0346	-114.087	38.7506	-17.4423	-182.328	63.215	-83.3129	-175.178	59.6292	-108.741	-176.939	58.8616	-131.332	-211.328	69.073	-95.8624	-208.597	66.1077	-119.917	-205.489	62.942	-153.97	-236.013	65.159	-88.564	-241.996	61.3469	-116.378	-242.288	56.3194	-140.191	-270.13	55.092	-72.2641	-275.109	49.2989	-87.0927	-286.27	46.7987	-112.606	-242.763	81.2741	-34.3679	-244.522	91.4897	-5.39605	-204.853	86.1971	-17.914	
8	0.0666667	-180.159	65.626	4.82348	-157.091	51.4298	-3.98567	-136.742	43.5014	-16.3129	-113.29	37.3291	-21.6809	-182.269	63.3994	-80.8077	-175.886	60.5912	-109.48	-170.528	58.2344	-134.688	-210.56	69.9032	-92.2923	-210.478	66.7874	-123.525	-207.964	63.2333	-151.4	-237.714	65.6729	-90.1384	-241.029	62.2315	-115.753	-238.818	56.4623	-142.694	-268.633	56.3533	-67.748	-274.35	50.0528	-86.0296	-285.87	48.1131	-110.273	-239.595	80.4844	-35.5023	-245.22	91.5092	-2.31102	-206.794	84.325	-16.7297	
9	0.075	-182.513	66.1495	6.05269	-154.132	52.3005	-1.26667	-133.721	45.4257	-11.7136	-117.034	35.9487	-19.3469	-180.924	63.1958	-81.492	-179.244	61.3707	-105.04	-174.895	59.8347	-132.305	-208.56	70.2657	-94.1729	-205.928	67.3754	-120.618	-206.75	63.0659	-149.601	-234.074	66.1166	-90.8772	-241.316	63.5244	-113.927	-239.987	56.6383	-140.609	-263.739	56.7123	-68.2821	-275.989	49.2793	-87.9142	-283.135	47.5612	-109.961	-242.154	81.7617	-35.0626	-244.104	92.0465	-6.14483	-205.732	85.1742	-15.6691	
10	0.0833333	-178.954	66.9619	4.7804	-155.679	52.6949	-1.6759	-133.388	44.4834	-14.0604	-112.445	37.4561	-19.2794	-182.637	63.5245	-82.657	-175.946	61.4497	-105.309	-174.805	60.4046	-134.442	-209.101	70.7162	-95.51	-206.374	67.2254	-119.344	-209.947	63.8073	-149.389	-239.858	66.1855	-88.4286	-239.984	63.633	-113.914	-238.56	57.9473	-141.639	-263.217	56.8819	-68.1921	-274.399	50.7928	-87.5422	-282.025	48.1812	-109.15	-241.21	82.1672	-34.2586	-242.613	91.0602	-6.35794	-206.677	86.4523	-16.9632	
11	0.0916667	-181.95	65.9111	7.34404	-152.997	53.4379	1.48227	-131.615	45.6721	-11.8092	-115.165	36.9641	-19.6253	-179.751	63.6426	-82.0412	-174.243	61.7185	-107.044	-174.326	60.5162	-130.045	-208.138	70.6333	-91.9254	-207.23	68.2573	-120.953	-206.75	64.8368	-152.188	-237.056	66.468	-85.9365	-235.384	63.1948	-112.836	-239.338	58.4543	-137.675	-262.585	56.4791	-72.9577	-270.685	51.1157	-85.6452	-283.863	49.09	-109.405	-239.197	83.4771	-35.9115	-243.671	92.9413	-4.4334	-202.531	83.7542	-17.2891	
12	0.1	-180.438	66.3304	3.55746	-156.816	51.2267	-1.78739	-130.853	44.6369	-11.1323	-111.967	38.3726	-16.6735	-177.721	63.2171	-82.3546	-171.352	61.2242	-104.847	-171.698	60.0482	-127.905	-205.176	70.0174	-93.3303	-205.484	67.5306	-121.732	-206.792	65.3472	-147.782	-237.428	67.2278	-87.3414	-233.046	63.3918	-115.74	-237.018	58.3239	-139.185	-264.222	57.0432	-67.3442	-271.623	51.3117	-84.2028	-281.754	49.9319	-110.89	-234.245	80.7422	-36.1181	-240.56	92.3815	-1.4987	-204.244	84.0626	-14.8584	
13	0.108333	-179.347	65.8122	8.16076	-152.014	52.586	-0.465911	-129.622	45.4781	-13.0045	-110.718	37.5627	-17.8591	-181.835	63.8144	-79.7545	-174.169	62.1142	-102.586	-170.456	60.6844	-131.681	-206.375	71.1049	-95.0383	-203.333	67.5522	-120.981	-203.855	64.7555	-147.128	-234.194	67.1275	-89.1949	-234.797	63.9815	-112.057	-235.573	58.6299	-137.575	-262.098	57.2569	-72.51	-273.676	49.931	-89.0907	-279.498	49.3062	-111.259	-235.018	80.7122	-35.9174	-239.573	93.5791	-4.02708	-203.729	86.9229	-13.2256	
14	0.116667	-176.972	67.0984	7.61924	-154.175	53.1833	1.79059	-130.443	45.4426	-10.5635	-112.782	37.7163	-17.9023	-180.526	63.9661	-82.6641	-174.542	61.6477	-104.7	-169.91	59.2565	-131.126	-205.068	70.7978	-91.3864	-201.997	67.5859	-119.277	-204.252	64.6916	-152.545	-233.322	67.3368	-88.0419	-234.351	64.3142	-114.435	-234.02	58.1829	-136.978	-265.828	56.8247	-70.7569	-272.359	52.0207	-84.6504	-282.285	49.7546	-111.945	-238.83	83.1034	-33.5706	-238.855	90.8526	-3.77868	-204.411	86.0205	-15.9063	
15	0.125	-176.828	66.0725	7.29285	-153.218	51.9193	-1.42801	-127.861	45.3355	-14.5977	-111.876	37.0987	-15.4262	-178.073	63.8924	-80.4389	-169.961	61.1453	-104.191	-169.887	60.1789	-134.003	-207.969	71.8348	-90.7251	-200.744	68.0163	-122.029	-202.599	64.8601	-148.702	-234.493	67.7945	-86.3228	-232.802	63.5824	-112.551	-235.651	58.0385	-137.914	-265.542	56.848	-69.1762	-270.114	50.9285	-86.4196	-277.961	49.3023	-111.474	-235.822	81.2024	-35.5237	-238.955	91.5001	-2.74816	-201.372	86.8248	-18.0156	
16	0.133333	-176.19	66.4714	8.99818	-149.882	51.4655	-2.54262	-130.336	43.8472	-13.0614	-108.986	36.4283	-19.89	-178.845	64.7414	-78.6302	-172.572	61.1651	-107.563	-169.277	59.8371	-131.185	-209.067	71.8794	-89.5269	-205.025	69.0975	-120.441	-204.231	64.6425	-148.46	-230.628	67.083	-87.6795	-234.313	64.4445	-115.232	-234.852	58.6562	-141.969	-263.383	56.5809	-70.6874	-269.607	51.2282	-86.0061	-276.412	48.0757	-109.464	-236.336	83.2553	-31.0341	-237.05	92.8495	-3.91628	-202.663	86.816	-18.1051	
17	0.141667	-173.75	65.9742	8.06764	-153.417	50.5337	0.773393	-131.048	42.4366	-12.2528	-109.66	34.2374	-19.1336	-174.804	66.6371	-76.997	-171.346	63.6073	-107.176	-167.953	60.8595	-130.551	-205.645	74.0786	-93.7054	-201.185	69.9445	-119.105	-203.43	64.1883	-152.76	-232.478	69.7029	-88.4152	-233.11	66.0099	-112.945	-228.93	56.5203	-139.782	-259.6	59.479	-69.1767	-269.776	51.278	-88.8076	-273.672	47.9659	-108.64	-233.128	84.6742	-33.0465	-238.784	92.7914	-3.33982	-203.678	87.4804	-15.2444	
